HIERARCHY
ROOT root
{
	OFFSET 0.000000 0.000000 0.000000
	CHANNELS 6 Xposition Yposition Zposition Zrotation Yrotation Xrotation
	JOINT lhip
	{
		OFFSET 0.058581 -0.082280 -0.017664
		CHANNELS 3 Zrotation Yrotation Xrotation
		JOINT lknee
		{
			OFFSET 0.043451 -0.386469 0.008037
			CHANNELS 3 Zrotation Yrotation Xrotation
			JOINT lankle
			{
				OFFSET -0.014790 -0.426874 -0.037428
				CHANNELS 3 Zrotation Yrotation Xrotation
				JOINT ltoe
				{
					OFFSET 0.041054 -0.060286 0.122042
					CHANNELS 3 Zrotation Yrotation Xrotation
					End Site
					{
						OFFSET 0.000000 0.000000 0.000000
					}
				}
			}
		}
	}
	JOINT rhip
	{
		OFFSET -0.060310 -0.090513 -0.013543
		CHANNELS 3 Zrotation Yrotation Xrotation
		JOINT rknee
		{
			OFFSET -0.043257 -0.383688 -0.004843
			CHANNELS 3 Zrotation Yrotation Xrotation
			JOINT rankle
			{
				OFFSET 0.019056 -0.420046 -0.034562
				CHANNELS 3 Zrotation Yrotation Xrotation
				JOINT rtoe
				{
					OFFSET -0.034840 -0.062106 0.130323
					CHANNELS 3 Zrotation Yrotation Xrotation
					End Site
					{
						OFFSET 0.000000 0.000000 0.000000
					}
				}
			}
		}
	}
	JOINT lowerback
	{
		OFFSET 0.004439 0.124404 -0.038385
		CHANNELS 3 Zrotation Yrotation Xrotation
		JOINT upperback
		{
			OFFSET 0.004488 0.137956 0.026820
			CHANNELS 3 Zrotation Yrotation Xrotation
			JOINT chest
			{
				OFFSET -0.002265 0.056032 0.002855
				CHANNELS 3 Zrotation Yrotation Xrotation
				JOINT lowerneck
				{
					OFFSET -0.013390 0.211636 -0.033468
					CHANNELS 3 Zrotation Yrotation Xrotation
					JOINT upperneck
					{
						OFFSET 0.010113 0.088937 0.050410
						CHANNELS 3 Zrotation Yrotation Xrotation
						End Site
						{
							OFFSET 0.000000 0.000000 0.000000
						}
					}
				}
				JOINT lclavicle
				{
					OFFSET 0.071702 0.114000 -0.018898
					CHANNELS 3 Zrotation Yrotation Xrotation
					JOINT lshoulder
					{
						OFFSET 0.122921 0.045205 -0.019046
						CHANNELS 3 Zrotation Yrotation Xrotation
						JOINT lelbow
						{
							OFFSET 0.255332 -0.015649 -0.022946
							CHANNELS 3 Zrotation Yrotation Xrotation
							JOINT lwrist
							{
								OFFSET 0.265709 0.012698 -0.007375
								CHANNELS 3 Zrotation Yrotation Xrotation
								End Site
								{
									OFFSET 0.000000 0.000000 0.000000
								}
							}
						}
					}
				}
				JOINT rclavicle
				{
					OFFSET -0.082954 0.112472 -0.023707
					CHANNELS 3 Zrotation Yrotation Xrotation
					JOINT rshoulder
					{
						OFFSET -0.113228 0.046853 -0.008472
						CHANNELS 3 Zrotation Yrotation Xrotation
						JOINT relbow
						{
							OFFSET -0.260127 -0.014369 -0.031269
							CHANNELS 3 Zrotation Yrotation Xrotation
							JOINT rwrist
							{
								OFFSET -0.269108 0.006794 -0.006027
								CHANNELS 3 Zrotation Yrotation Xrotation
								End Site
								{
									OFFSET 0.000000 0.000000 0.000000
								}
							}
						}
					}
				}
			}
		}
	}
}
MOTION
Frames: 17
Frame Time: 0.033333
0.112998 0.128064 0.967163 135.876022 3.936683 90.395173 12.205168 9.710303 -20.105240 0.603307 11.310057 23.630839 3.755671 17.452572 -9.222860 0.000000 -0.000000 0.000000 -10.867677 -12.849877 0.912010 1.417880 -16.831432 11.620203 5.484248 -10.686174 -11.430160 0.000000 -0.000000 0.000000 -1.529240 7.741042 1.218556 0.367158 -0.676176 4.014700 0.069634 1.021316 0.101491 0.260939 1.533221 11.333358 7.419461 -8.843592 -17.644040 -15.359854 1.170786 -0.737460 -45.642955 9.246861 7.615814 19.580794 -34.860007 -6.817421 -3.887287 -21.750499 -4.172432 13.533458 11.059660 -0.905849 44.491579 1.980995 9.561422 48.532169 82.653117 60.691187 -1.969392 25.988123 -19.796185 
0.120360 0.110131 0.967141 131.542093 3.785047 90.130035 13.323877 11.174088 -18.560324 1.333575 11.999755 22.102724 3.880301 18.500738 -7.504840 0.000000 -0.000000 0.000000 -9.587815 -11.796192 -1.439060 1.334517 -15.044750 12.831239 4.106316 -10.341263 -12.780259 0.000000 -0.000000 0.000000 -1.085565 6.475251 1.900742 0.189275 -0.973925 3.553791 0.046551 0.525714 0.130916 -0.222597 1.822698 10.888704 7.021653 -9.000355 -18.009315 -15.760966 0.948615 -0.975817 -44.926077 9.035214 6.810240 20.300631 -34.570627 -7.958669 -4.112442 -21.797391 -3.444652 13.271425 9.724437 -0.976435 44.941958 -0.137497 9.376987 37.123898 79.054679 50.348229 -0.460456 25.942560 -18.074805 
0.127993 0.091483 0.967634 127.516823 3.744148 89.782064 14.591631 12.298431 -16.533286 1.772615 12.274533 20.009547 4.161682 19.176400 -5.929256 0.000000 -0.000000 0.000000 -8.387315 -10.130528 -3.667352 1.448404 -12.621773 14.789582 3.505978 -9.598057 -13.857754 0.000000 -0.000000 0.000000 -0.612016 5.101823 2.629575 0.085319 -1.285276 3.250331 0.015288 0.090228 0.152445 -0.705749 2.238276 10.376542 6.494950 -9.115559 -18.348084 -16.076665 0.575059 -1.237291 -44.544148 8.789836 6.135501 21.259670 -34.437466 -9.247705 -4.449543 -21.749757 -2.976059 13.037376 8.790036 -0.976556 45.719364 -1.768247 9.222734 28.062349 75.447017 41.707888 0.774408 25.426365 -17.696632 
0.135832 0.073003 0.968325 123.706641 3.818976 89.482355 15.959604 13.102574 -14.181731 1.612826 11.563165 17.484478 3.598609 18.819188 -6.024087 0.000000 -0.000000 0.000000 -7.015238 -8.434338 -5.170835 1.818219 -10.867646 15.709414 2.972203 -8.771401 -14.589132 0.000000 -0.000000 0.000000 -0.094566 3.735966 3.235925 0.102568 -1.611697 2.972164 -0.040480 -0.296642 0.069948 -1.191223 2.921244 10.288912 5.848122 -9.324553 -18.921713 -16.220307 0.367239 -1.319290 -44.649728 8.210900 5.667816 22.264137 -34.453563 -10.637951 -4.998670 -21.846052 -2.242789 12.870456 8.089323 -0.864398 46.657013 -2.892593 9.080467 20.614009 71.611641 35.235900 1.830355 24.945287 -16.489100 
0.143732 0.055308 0.969448 120.026023 3.754317 89.094320 16.854300 13.163384 -11.830571 1.629511 9.894825 15.356966 2.814760 18.429160 -8.413740 0.000000 -0.000000 0.000000 -5.670284 -7.264442 -5.641416 2.168632 -9.400497 15.253192 2.380046 -7.865985 -14.914380 0.000000 -0.000000 0.000000 0.147837 2.643029 3.744536 0.227512 -2.000354 2.938581 -0.055788 -0.685881 -0.186385 -1.744581 3.607977 10.273933 5.181636 -9.350394 -19.311878 -16.477545 0.278162 -1.269408 -44.871902 7.383344 5.481910 23.270216 -34.808157 -11.956425 -5.841365 -22.161222 -1.198622 13.134980 7.583058 -0.786461 47.340565 -3.693072 8.981155 14.324948 67.561817 30.145678 3.412334 24.955195 -14.347659 
0.151417 0.039149 0.971096 116.633096 3.486291 88.643938 17.181541 12.158033 -9.700926 1.904471 7.967929 14.124398 2.505915 18.332308 -11.432795 0.000000 -0.000000 0.000000 -4.733819 -6.284733 -5.797971 2.663660 -7.706237 14.926396 2.031170 -7.148041 -15.076547 0.000000 -0.000000 0.000000 0.153076 1.771831 4.047684 0.358021 -2.445123 3.102957 -0.080827 -1.128042 -0.468414 -2.351439 4.084828 9.993128 4.529406 -9.004334 -19.165043 -16.741293 0.251868 -1.318007 -45.355179 6.536949 5.671130 24.378851 -35.507698 -12.959298 -6.701625 -22.267035 -0.372094 13.500059 7.168562 -0.816452 47.976187 -4.172450 9.216628 9.492773 63.441940 25.307722 5.174603 24.863012 -14.178314 
0.158043 0.025217 0.972825 113.161036 3.058936 88.348505 16.805357 10.368810 -7.812264 1.875027 4.943101 13.174549 1.801629 17.392064 -13.499663 0.000000 -0.000000 0.000000 -4.014464 -4.860762 -6.329091 2.998948 -6.111860 15.141089 1.605255 -6.790801 -15.233205 0.000000 -0.000000 0.000000 0.122413 1.035466 4.099050 0.416380 -2.646374 3.278112 -0.074922 -1.392358 -0.780020 -3.085528 4.425491 9.929554 3.966798 -8.190105 -19.032697 -17.053652 0.198793 -1.384910 -46.350243 5.597069 6.268305 25.673594 -36.239416 -13.996453 -7.281059 -22.227581 -0.016160 13.584869 6.736932 -0.839223 48.769346 -4.465059 9.627790 5.712572 59.615877 21.012714 6.456767 24.125691 -15.193533 
0.163687 0.013782 0.974568 109.917154 2.511723 88.165655 15.906446 8.184995 -6.867207 1.135172 1.682167 13.640252 0.679095 16.125486 -14.535668 0.000000 -0.000000 0.000000 -3.477630 -3.360419 -6.701320 3.079648 -4.859770 15.075826 1.019425 -6.555405 -15.092745 0.000000 -0.000000 0.000000 0.108885 0.505359 4.036623 0.466345 -2.866720 3.465844 -0.121129 -1.590716 -1.059652 -3.896148 4.633703 9.758919 3.547177 -7.069934 -18.833109 -17.383625 0.157499 -1.358947 -47.701688 4.269101 6.900860 26.681848 -36.967106 -14.948668 -7.857621 -22.197190 0.592426 13.813741 6.216435 -0.800779 49.348919 -4.426185 9.812711 2.785459 55.682416 18.426333 7.917873 23.653417 -13.331011 
0.168390 0.004577 0.976493 107.178631 1.900632 87.935622 14.554261 6.179836 -6.677195 -0.243880 -1.218943 14.916180 -0.449166 14.127413 -15.327753 0.000000 -0.000000 0.000000 -3.174265 -2.506219 -6.608126 3.089693 -3.588451 14.557440 0.503681 -6.194931 -14.715426 0.000000 -0.000000 0.000000 0.160222 0.183343 4.148758 0.473319 -3.221097 3.588183 -0.141623 -1.868432 -1.237278 -4.705306 4.712599 9.503345 3.148553 -5.901580 -18.816038 -17.769015 -0.157688 -1.285645 -49.324340 2.817880 7.841292 27.465413 -37.515976 -15.553653 -7.839629 -22.470723 0.779637 13.916103 5.816826 -0.871391 50.105923 -4.190340 10.066712 0.383768 51.091641 16.251326 8.616673 23.536934 -11.798685 
0.172457 -0.002783 0.978955 104.596840 1.342670 87.645099 12.906408 4.717754 -6.473303 -1.156348 -3.467644 15.330926 -1.632862 11.894305 -15.975139 0.000000 -0.000000 0.000000 -2.976174 -2.029777 -6.114966 3.103751 -2.205736 13.560298 0.163139 -5.689842 -14.054565 0.000000 -0.000000 0.000000 0.293846 0.058006 4.286484 0.468114 -3.499045 3.959036 -0.073062 -2.118024 -1.518547 -5.512833 4.872116 9.360121 2.679809 -4.789419 -19.106235 -18.236723 -0.744093 -1.145391 -51.094830 1.440880 9.094577 28.102267 -37.918076 -15.937633 -7.851413 -22.598834 0.870086 13.946488 5.744498 -0.883311 50.980917 -3.722843 10.405755 -1.745497 45.917651 12.556096 8.789769 22.880049 -13.008900 
0.176473 -0.008289 0.981224 101.981350 0.954552 87.465687 11.469979 4.112865 -6.353978 -1.511701 -4.401419 14.880578 -2.307974 10.508037 -16.569448 0.000000 -0.000000 0.000000 -2.756763 -1.633291 -5.468901 3.098412 -0.832334 12.169431 0.048311 -5.001956 -13.171827 0.000000 -0.000000 0.000000 0.579229 0.094847 4.172021 0.529823 -3.675142 4.551274 0.039808 -2.190222 -1.904987 -6.222954 5.276970 9.404052 2.042878 -3.758149 -19.427783 -18.644877 -1.598548 -0.849591 -53.146229 0.255238 10.346033 28.572184 -38.317639 -15.978553 -8.099075 -22.403064 1.010814 13.845896 5.890906 -0.720749 51.962205 -3.118324 10.518282 -3.578578 40.528267 8.774006 8.853112 21.834014 -14.667852 
0.180251 -0.012432 0.982852 99.460528 0.764364 87.385924 10.377179 3.567416 -6.548857 -1.579133 -4.780017 14.503835 -2.431002 10.044687 -17.230191 0.000000 -0.000000 0.000000 -2.423289 -1.022710 -4.933773 3.015804 0.363009 10.926447 0.003156 -4.360626 -12.411048 0.000000 -0.000000 0.000000 0.920596 0.189378 3.932117 0.727119 -3.819985 5.214415 0.199903 -2.154631 -2.353119 -6.799669 5.847401 9.451532 1.293006 -2.781311 -19.563324 -18.852916 -2.467149 -0.562415 -55.574691 -0.894323 11.476748 28.700085 -38.466602 -15.511043 -8.921667 -22.262488 1.377348 13.763931 6.121993 -0.476987 52.822125 -2.516103 10.654489 -5.242293 35.273418 6.531511 9.404108 21.081980 -14.297565 
0.183798 -0.015394 0.983756 97.246102 0.715658 87.160048 9.585375 2.551533 -6.757984 -1.775910 -5.854877 14.765320 -2.532758 9.535975 -17.863955 0.000000 -0.000000 0.000000 -2.067923 -0.351273 -4.299523 2.963287 1.416585 9.977925 -0.128794 -3.925494 -11.894757 0.000000 -0.000000 0.000000 1.243529 0.253207 3.898324 0.994837 -4.039648 5.838483 0.425931 -2.179436 -2.793929 -7.322507 6.488028 9.416761 0.537593 -1.646564 -19.497399 -19.047709 -3.446678 -0.144503 -58.037479 -1.886109 12.546888 28.791278 -38.410365 -14.948519 -10.005503 -22.092881 1.556140 13.675201 6.452850 -0.254587 53.587452 -2.083483 10.818294 -6.528007 30.950860 5.115770 10.356580 20.465487 -13.823159 
0.187694 -0.017277 0.984068 95.191697 0.836420 86.715203 9.186866 1.568717 -6.544796 -1.991062 -6.982803 15.445847 -2.423951 9.153151 -17.707031 0.000000 -0.000000 0.000000 -1.699112 0.221962 -3.373625 3.040241 2.425399 9.118348 -0.329936 -3.523436 -11.581594 0.000000 -0.000000 0.000000 1.695264 0.275170 4.142543 1.255094 -4.294311 6.209224 0.657275 -2.264456 -3.035963 -7.887019 7.301276 9.340504 -0.262146 -0.265003 -19.366668 -19.363991 -4.391141 0.354356 -60.098060 -2.504007 13.454753 28.468037 -38.544983 -14.247219 -10.884570 -21.746519 1.398688 13.574751 6.738730 -0.123564 54.217134 -1.872618 10.892845 -7.183237 28.053425 3.625676 11.589996 19.793489 -14.354543 
0.191989 -0.018442 0.983817 93.062386 1.194515 86.268616 9.290061 1.304224 -6.023551 -1.393853 -6.324554 16.338729 -1.625922 10.149167 -15.618701 0.000000 -0.000000 0.000000 -1.135186 0.885016 -2.494933 3.109189 3.278588 8.475665 -0.674624 -2.996946 -11.494739 0.000000 -0.000000 0.000000 2.406335 0.277020 4.190319 1.486960 -4.481831 6.696931 0.832908 -2.328650 -3.286711 -8.345970 8.543035 9.291482 -1.250704 1.100843 -19.043429 -19.584300 -5.364834 0.750268 -61.939095 -2.633825 14.115338 27.702484 -38.611074 -13.057804 -12.037919 -21.331427 1.211470 13.391977 6.916347 -0.052204 54.795722 -1.938474 11.016120 -7.448029 26.768186 2.401040 13.311766 19.406682 -14.932337 
0.196400 -0.019027 0.982913 91.071217 1.599569 86.018633 9.772458 1.771319 -5.137690 -0.885850 -5.318343 16.455649 -1.140921 10.595511 -14.600632 0.000000 -0.000000 0.000000 -0.550772 1.518606 -1.886243 3.087617 3.871043 7.977033 -0.852778 -2.339266 -11.501481 0.000000 -0.000000 0.000000 3.139937 0.089447 4.085372 1.736469 -4.619597 7.026015 0.915971 -2.416606 -3.532726 -8.603083 10.344611 9.336173 -2.502877 2.499755 -18.614107 -19.680262 -5.715610 0.907229 -63.571097 -2.559997 14.638528 26.742189 -38.626030 -11.627977 -14.769621 -20.626648 2.115040 13.245871 6.752937 0.008219 55.255787 -2.050039 11.423726 -7.370487 26.877841 2.139178 16.449418 19.552542 -15.295462 
0.200574 -0.019315 0.981994 89.690171 1.816151 85.940126 10.301490 2.522591 -4.197064 -0.855973 -4.561709 16.092449 -1.256010 10.297149 -14.910431 0.000000 -0.000000 0.000000 -0.255958 1.910485 -1.428540 3.044984 4.089958 7.492177 -0.796554 -1.726120 -11.495247 0.000000 -0.000000 0.000000 3.549203 -0.299276 4.027554 1.981330 -4.864938 6.920991 1.019318 -2.607439 -3.616653 -8.838233 12.484990 9.436649 -3.851812 4.192079 -18.143320 -19.754611 -5.583747 0.945395 -64.782589 -2.337235 15.046075 25.604070 -38.352976 -9.943043 -18.476052 -20.087914 3.650501 13.269739 6.333399 -0.035240 55.517114 -2.134004 11.985437 -6.900270 27.786816 2.447302 20.822483 19.998721 -15.717711 
